<mxfile host="app.diagrams.net" modified="2021-08-06T19:17:32.746Z" agent="5.0 (X11; Linux x86_64) AppleWebKit/537.36 (KHTML, like Gecko) Chrome/91.0.4472.114 Safari/537.36" etag="-YN0MU1BhlHyD_9awOqI" version="14.9.5" type="github">
  <diagram id="4D4Wwo52PUWlQWk5PlVn" name="Page-1">
    <mxGraphModel dx="1209" dy="571" grid="1" gridSize="10" guides="1" tooltips="1" connect="1" arrows="1" fold="1" page="1" pageScale="1" pageWidth="850" pageHeight="1100" math="0" shadow="0">
      <root>
        <mxCell id="0" />
        <mxCell id="1" parent="0" />
        <mxCell id="VSoI2i0r2ZHzMTRy8a5N-25" value="" style="edgeStyle=orthogonalEdgeStyle;rounded=0;orthogonalLoop=1;jettySize=auto;html=1;" edge="1" parent="1" source="VSoI2i0r2ZHzMTRy8a5N-1" target="VSoI2i0r2ZHzMTRy8a5N-4">
          <mxGeometry relative="1" as="geometry" />
        </mxCell>
        <mxCell id="VSoI2i0r2ZHzMTRy8a5N-1" value="Login/Sign Up&lt;br&gt;Requirement: WiFi" style="rounded=1;whiteSpace=wrap;html=1;" vertex="1" parent="1">
          <mxGeometry x="100" y="120" width="120" height="60" as="geometry" />
        </mxCell>
        <mxCell id="VSoI2i0r2ZHzMTRy8a5N-3" value="&lt;div&gt;&lt;span&gt;Connect Module&lt;/span&gt;&lt;/div&gt;&lt;div&gt;&lt;span&gt;1. QR scan&lt;/span&gt;&lt;/div&gt;&lt;div&gt;&lt;span&gt;2. Nearby Share BLE&lt;/span&gt;&lt;/div&gt;" style="rounded=1;whiteSpace=wrap;html=1;align=center;" vertex="1" parent="1">
          <mxGeometry x="466" y="120" width="110" height="60" as="geometry" />
        </mxCell>
        <mxCell id="VSoI2i0r2ZHzMTRy8a5N-26" value="" style="edgeStyle=orthogonalEdgeStyle;rounded=0;orthogonalLoop=1;jettySize=auto;html=1;" edge="1" parent="1" source="VSoI2i0r2ZHzMTRy8a5N-4" target="VSoI2i0r2ZHzMTRy8a5N-3">
          <mxGeometry relative="1" as="geometry" />
        </mxCell>
        <mxCell id="VSoI2i0r2ZHzMTRy8a5N-4" value="WiFi Module&lt;br&gt;&lt;div style=&quot;text-align: left&quot;&gt;&lt;span&gt;-&amp;nbsp;&lt;/span&gt;&lt;span&gt;Permission Handle&lt;/span&gt;&lt;/div&gt;&lt;div style=&quot;text-align: left&quot;&gt;&lt;div&gt;- Network Info Harvest&lt;/div&gt;&lt;/div&gt;" style="rounded=1;whiteSpace=wrap;html=1;" vertex="1" parent="1">
          <mxGeometry x="280" y="120" width="130" height="60" as="geometry" />
        </mxCell>
        <mxCell id="VSoI2i0r2ZHzMTRy8a5N-11" value="AWS &lt;br&gt;S3 Buckets" style="shape=cylinder;whiteSpace=wrap;html=1;boundedLbl=1;backgroundOutline=1;rounded=1;" vertex="1" parent="1">
          <mxGeometry x="774" y="250" width="60" height="80" as="geometry" />
        </mxCell>
        <mxCell id="VSoI2i0r2ZHzMTRy8a5N-16" value="" style="edgeStyle=orthogonalEdgeStyle;rounded=0;orthogonalLoop=1;jettySize=auto;html=1;" edge="1" parent="1" source="VSoI2i0r2ZHzMTRy8a5N-13" target="VSoI2i0r2ZHzMTRy8a5N-14">
          <mxGeometry relative="1" as="geometry" />
        </mxCell>
        <mxCell id="VSoI2i0r2ZHzMTRy8a5N-13" value="Actor" style="shape=umlActor;verticalLabelPosition=bottom;verticalAlign=top;html=1;outlineConnect=0;" vertex="1" parent="1">
          <mxGeometry x="280" y="435" width="30" height="60" as="geometry" />
        </mxCell>
        <mxCell id="VSoI2i0r2ZHzMTRy8a5N-15" value="" style="edgeStyle=orthogonalEdgeStyle;rounded=0;orthogonalLoop=1;jettySize=auto;html=1;" edge="1" parent="1" source="VSoI2i0r2ZHzMTRy8a5N-14" target="VSoI2i0r2ZHzMTRy8a5N-11">
          <mxGeometry relative="1" as="geometry" />
        </mxCell>
        <mxCell id="VSoI2i0r2ZHzMTRy8a5N-14" value="Device&lt;br&gt;- Receive wifi info&lt;br&gt;- Connect to the wifi" style="shape=cube;whiteSpace=wrap;html=1;boundedLbl=1;backgroundOutline=1;darkOpacity=0.05;darkOpacity2=0.1;" vertex="1" parent="1">
          <mxGeometry x="400" y="420" width="120" height="90" as="geometry" />
        </mxCell>
        <mxCell id="VSoI2i0r2ZHzMTRy8a5N-17" value="Voice&lt;br&gt;Clip&lt;br&gt;+&lt;br&gt;Device&lt;br&gt;Info/Health&lt;br&gt;+&lt;br&gt;Usage Stats" style="text;html=1;align=center;verticalAlign=middle;resizable=0;points=[];autosize=1;strokeColor=none;" vertex="1" parent="1">
          <mxGeometry x="700" y="355" width="80" height="100" as="geometry" />
        </mxCell>
        <mxCell id="VSoI2i0r2ZHzMTRy8a5N-19" value="Cache/Storage&amp;nbsp;&lt;br&gt;with&amp;nbsp;&lt;br&gt;compressed&lt;br&gt;voice memo" style="shape=cylinder3;whiteSpace=wrap;html=1;boundedLbl=1;backgroundOutline=1;size=15;" vertex="1" parent="1">
          <mxGeometry x="410" y="530" width="90" height="110" as="geometry" />
        </mxCell>
        <mxCell id="VSoI2i0r2ZHzMTRy8a5N-27" value="Send&lt;br&gt;Wifi Info" style="text;html=1;strokeColor=none;fillColor=none;align=center;verticalAlign=middle;whiteSpace=wrap;rounded=0;" vertex="1" parent="1">
          <mxGeometry x="440" y="290" width="40" height="20" as="geometry" />
        </mxCell>
        <mxCell id="VSoI2i0r2ZHzMTRy8a5N-30" value="User&#39;s voice memo wont be saved until the device is connected with the app, &amp;amp; then server" style="text;html=1;strokeColor=none;fillColor=none;align=center;verticalAlign=middle;whiteSpace=wrap;rounded=0;" vertex="1" parent="1">
          <mxGeometry x="100" y="455" width="150" height="20" as="geometry" />
        </mxCell>
        <mxCell id="VSoI2i0r2ZHzMTRy8a5N-31" value="&lt;div&gt;&lt;span&gt;Stats Module&lt;/span&gt;&lt;/div&gt;&lt;div&gt;&lt;span&gt;1. QR scan&lt;/span&gt;&lt;/div&gt;&lt;div&gt;&lt;span&gt;2. Nearby Share BLE&lt;/span&gt;&lt;/div&gt;" style="rounded=1;whiteSpace=wrap;html=1;align=center;" vertex="1" parent="1">
          <mxGeometry x="740" y="120" width="110" height="60" as="geometry" />
        </mxCell>
        <mxCell id="VSoI2i0r2ZHzMTRy8a5N-32" value="" style="endArrow=classic;html=1;" edge="1" parent="1">
          <mxGeometry width="50" height="50" relative="1" as="geometry">
            <mxPoint x="800" y="240" as="sourcePoint" />
            <mxPoint x="800" y="190" as="targetPoint" />
          </mxGeometry>
        </mxCell>
        <mxCell id="VSoI2i0r2ZHzMTRy8a5N-33" value="Device&amp;nbsp;&lt;br&gt;Info/Health" style="text;html=1;strokeColor=none;fillColor=none;align=center;verticalAlign=middle;whiteSpace=wrap;rounded=0;" vertex="1" parent="1">
          <mxGeometry x="720" y="220" width="40" height="20" as="geometry" />
        </mxCell>
        <mxCell id="VSoI2i0r2ZHzMTRy8a5N-34" value="" style="endArrow=none;dashed=1;html=1;dashPattern=1 3;strokeWidth=2;" edge="1" parent="1">
          <mxGeometry width="50" height="50" relative="1" as="geometry">
            <mxPoint x="70" y="210" as="sourcePoint" />
            <mxPoint x="1120" y="210" as="targetPoint" />
          </mxGeometry>
        </mxCell>
        <mxCell id="VSoI2i0r2ZHzMTRy8a5N-37" value="CROSS PLATFORM &lt;br&gt;APP" style="shape=process;whiteSpace=wrap;html=1;backgroundOutline=1;" vertex="1" parent="1">
          <mxGeometry x="980" y="120" width="120" height="60" as="geometry" />
        </mxCell>
        <mxCell id="VSoI2i0r2ZHzMTRy8a5N-38" value="DEVICE" style="shape=process;whiteSpace=wrap;html=1;backgroundOutline=1;" vertex="1" parent="1">
          <mxGeometry x="980" y="415" width="120" height="60" as="geometry" />
        </mxCell>
        <mxCell id="VSoI2i0r2ZHzMTRy8a5N-39" value="" style="endArrow=none;dashed=1;html=1;dashPattern=1 3;strokeWidth=2;" edge="1" parent="1">
          <mxGeometry width="50" height="50" relative="1" as="geometry">
            <mxPoint x="70" y="350" as="sourcePoint" />
            <mxPoint x="1120" y="350" as="targetPoint" />
          </mxGeometry>
        </mxCell>
        <mxCell id="VSoI2i0r2ZHzMTRy8a5N-40" value="CLOUD" style="shape=process;whiteSpace=wrap;html=1;backgroundOutline=1;" vertex="1" parent="1">
          <mxGeometry x="980" y="260" width="120" height="60" as="geometry" />
        </mxCell>
        <mxCell id="VSoI2i0r2ZHzMTRy8a5N-41" value="1" style="ellipse;whiteSpace=wrap;html=1;" vertex="1" parent="1">
          <mxGeometry x="145" y="80" width="30" height="30" as="geometry" />
        </mxCell>
        <mxCell id="VSoI2i0r2ZHzMTRy8a5N-42" value="2" style="ellipse;whiteSpace=wrap;html=1;" vertex="1" parent="1">
          <mxGeometry x="330" y="80" width="30" height="30" as="geometry" />
        </mxCell>
        <mxCell id="VSoI2i0r2ZHzMTRy8a5N-43" value="3" style="ellipse;whiteSpace=wrap;html=1;" vertex="1" parent="1">
          <mxGeometry x="500" y="80" width="30" height="30" as="geometry" />
        </mxCell>
        <mxCell id="VSoI2i0r2ZHzMTRy8a5N-45" value="4" style="ellipse;whiteSpace=wrap;html=1;" vertex="1" parent="1">
          <mxGeometry x="500" y="275" width="30" height="30" as="geometry" />
        </mxCell>
        <mxCell id="VSoI2i0r2ZHzMTRy8a5N-46" value="" style="endArrow=classic;html=1;exitX=0.25;exitY=1;exitDx=0;exitDy=0;entryX=0.762;entryY=-0.037;entryDx=0;entryDy=0;entryPerimeter=0;" edge="1" parent="1" source="VSoI2i0r2ZHzMTRy8a5N-3" target="VSoI2i0r2ZHzMTRy8a5N-14">
          <mxGeometry width="50" height="50" relative="1" as="geometry">
            <mxPoint x="560" y="360" as="sourcePoint" />
            <mxPoint x="610" y="310" as="targetPoint" />
          </mxGeometry>
        </mxCell>
        <mxCell id="VSoI2i0r2ZHzMTRy8a5N-47" value="5" style="ellipse;whiteSpace=wrap;html=1;" vertex="1" parent="1">
          <mxGeometry x="330" y="425" width="30" height="30" as="geometry" />
        </mxCell>
        <mxCell id="VSoI2i0r2ZHzMTRy8a5N-49" value="6" style="ellipse;whiteSpace=wrap;html=1;" vertex="1" parent="1">
          <mxGeometry x="610" y="425" width="30" height="30" as="geometry" />
        </mxCell>
        <mxCell id="VSoI2i0r2ZHzMTRy8a5N-51" value="7" style="ellipse;whiteSpace=wrap;html=1;" vertex="1" parent="1">
          <mxGeometry x="810" y="215" width="30" height="30" as="geometry" />
        </mxCell>
      </root>
    </mxGraphModel>
  </diagram>
</mxfile>
